<?xml version="1.0" standalone="no"?>
<!DOCTYPE svg PUBLIC "-//W3C//DTD SVG 20010904//EN"
 "http://www.w3.org/TR/2001/REC-SVG-20010904/DTD/svg10.dtd">
<svg version="1.0" xmlns="http://www.w3.org/2000/svg"
 width="512.000000pt" height="512.000000pt" viewBox="0 0 512.000000 512.000000"
 preserveAspectRatio="xMidYMid meet">

<g transform="translate(0.000000,512.000000) scale(0.100000,-0.100000)"
fill="#000000" stroke="none">
<path d="M0 2560 l0 -2560 2560 0 2560 0 0 2560 0 2560 -2560 0 -2560 0 0
-2560z m2731 2265 c61 -27 116 -80 1052 -1014 544 -542 1000 -1005 1014 -1029
131 -220 47 -496 -184 -604 -52 -25 -82 -32 -153 -36 l-89 -5 -3 -741 c-3
-739 -3 -741 -26 -800 -61 -162 -188 -279 -349 -321 -46 -12 -136 -15 -471
-15 -448 0 -447 0 -491 56 -21 26 -21 34 -21 599 0 632 -1 641 -63 712 -61 69
-78 73 -385 73 -224 0 -279 -3 -310 -16 -47 -19 -88 -58 -115 -109 -22 -39
-22 -49 -27 -641 -5 -584 -6 -603 -25 -624 -45 -50 -46 -50 -487 -50 -339 0
-424 3 -473 15 -181 48 -331 207 -364 389 -7 39 -11 302 -11 768 l0 708 -62 0
c-173 0 -317 92 -391 248 -30 62 -32 75 -32 172 0 192 -89 87 1049 1227 1033
1036 1033 1035 1142 1063 22 5 78 8 125 6 67 -3 100 -9 150 -31z"/>
</g>
</svg>
